<svg width="24" height="25" viewBox="0 0 24 25" fill="none" xmlns="http://www.w3.org/2000/svg">
<path fill-rule="evenodd" clip-rule="evenodd" d="M8.16623 7.6438C8.40015 6.34859 9.8068 5.17627 11.7537 5.17627C13.7007 5.17627 15.1073 6.34859 15.3412 7.6438H8.16623ZM6.63184 9.1438V10.1664C6.63184 10.5806 6.96762 10.9164 7.38184 10.9164C7.79605 10.9164 8.13184 10.5806 8.13184 10.1664V9.1438H15.3756V10.1664C15.3756 10.5806 15.7114 10.9164 16.1256 10.9164C16.5398 10.9164 16.8756 10.5806 16.8756 10.1664V9.1438H17.9196C18.61 9.1438 19.1696 9.70345 19.1696 10.3938V21C19.1696 21.6903 18.61 22.25 17.9196 22.25H6C5.30964 22.25 4.75 21.6903 4.75 21V10.3938C4.75 9.70345 5.30964 9.1438 6 9.1438H6.63184ZM6.65056 7.6438C6.88137 5.31798 9.21225 3.67627 11.7537 3.67627C14.2952 3.67627 16.6261 5.31797 16.8569 7.6438H17.9196C19.4384 7.6438 20.6696 8.87502 20.6696 10.3938V21C20.6696 22.5187 19.4384 23.75 17.9196 23.75H6C4.48122 23.75 3.25 22.5187 3.25 21V10.3938C3.25 8.87502 4.48122 7.6438 6 7.6438H6.65056Z" fill="#424242"/>
</svg>
